<?xml version="1.0" standalone="no"?>
<!DOCTYPE svg PUBLIC "-//W3C//DTD SVG 20010904//EN"
 "http://www.w3.org/TR/2001/REC-SVG-20010904/DTD/svg10.dtd">
<svg version="1.0" xmlns="http://www.w3.org/2000/svg"
 width="500.000000pt" height="500.000000pt" viewBox="0 0 500.000000 500.000000"
 preserveAspectRatio="xMidYMid meet">

<g transform="translate(0.000000,500.000000) scale(0.100000,-0.100000)"
fill="#000000" stroke="none">
<path d="M2331 4900 c-216 -58 -364 -179 -465 -378 -63 -124 -83 -305 -51
-457 34 -162 153 -336 293 -428 132 -87 230 -117 385 -117 140 0 192 12 316
72 89 43 116 62 186 132 65 65 90 100 128 176 62 123 80 211 74 350 -8 186
-73 336 -202 465 -133 133 -280 195 -475 201 -92 3 -130 0 -189 -16z"/>
<path d="M2331 3180 c-262 -71 -447 -254 -512 -508 -39 -153 -20 -336 50 -477
124 -249 357 -395 630 -395 119 0 202 19 306 70 155 75 278 205 344 363 40 97
55 189 48 306 -9 178 -77 330 -202 456 -133 133 -280 195 -475 201 -92 3 -130
0 -189 -16z"/>
<path d="M2325 1460 c-126 -33 -215 -82 -306 -167 -222 -208 -284 -548 -150
-818 124 -249 357 -395 630 -395 119 0 202 19 306 70 244 118 394 357 395 628
0 114 -23 210 -78 322 -86 176 -252 310 -448 360 -101 26 -252 26 -349 0z"/>
</g>
</svg>
