<?xml version="1.0" standalone="no"?>
<!DOCTYPE svg PUBLIC "-//W3C//DTD SVG 20010904//EN"
 "http://www.w3.org/TR/2001/REC-SVG-20010904/DTD/svg10.dtd">
<svg version="1.0" xmlns="http://www.w3.org/2000/svg"
 width="500.000000pt" height="500.000000pt" viewBox="0 0 500.000000 500.000000"
 preserveAspectRatio="xMidYMid meet">

<g transform="translate(0.000000,500.000000) scale(0.100000,-0.100000)"
fill="#000000" stroke="none">
<path d="M1845 4036 c-60 -28 -301 -269 -330 -331 -25 -52 -26 -147 -1 -195
10 -19 237 -254 504 -522 l487 -488 -487 -487 c-267 -269 -493 -502 -502 -519
-26 -53 -30 -106 -11 -170 16 -54 27 -69 163 -206 90 -90 161 -153 184 -162
48 -20 138 -20 186 -1 47 20 1413 1381 1445 1440 28 52 29 154 3 205 -10 19
-327 345 -705 724 -547 549 -696 693 -736 712 -66 31 -134 31 -200 0z"/>
</g>
</svg>
