<?xml version="1.0" standalone="no"?>
<!DOCTYPE svg PUBLIC "-//W3C//DTD SVG 20010904//EN"
 "http://www.w3.org/TR/2001/REC-SVG-20010904/DTD/svg10.dtd">
<svg version="1.0" xmlns="http://www.w3.org/2000/svg"
 width="500.000000pt" height="500.000000pt" viewBox="0 0 500.000000 500.000000"
 preserveAspectRatio="xMidYMid meet">

<g transform="translate(0.000000,500.000000) scale(0.100000,-0.100000)"
fill="#000000" stroke="none">
<path d="M2965 4044 c-32 -11 -186 -160 -728 -702 -387 -386 -700 -707 -715
-732 -35 -59 -37 -154 -5 -215 32 -59 1398 -1420 1445 -1440 48 -19 138 -19
185 0 46 19 295 263 331 325 34 56 37 154 8 210 -10 19 -237 254 -504 523
l-487 487 487 488 c267 268 494 503 504 522 24 48 24 143 -1 195 -28 60 -267
299 -329 330 -57 29 -128 32 -191 9z"/>
</g>
</svg>
