<?xml version="1.0" standalone="no"?>
<!DOCTYPE svg PUBLIC "-//W3C//DTD SVG 20010904//EN"
 "http://www.w3.org/TR/2001/REC-SVG-20010904/DTD/svg10.dtd">
<svg version="1.0" xmlns="http://www.w3.org/2000/svg"
 width="500.000000pt" height="500.000000pt" viewBox="0 0 500.000000 500.000000"
 preserveAspectRatio="xMidYMid meet">

<g transform="translate(0.000000,500.000000) scale(0.100000,-0.100000)"
fill="#000000" stroke="none">
<path d="M1840 4424 c-19 -8 -48 -26 -66 -39 -17 -13 -244 -317 -504 -674
l-473 -650 -316 -3 -317 -3 -49 -26 c-30 -15 -62 -42 -80 -68 -28 -40 -30 -49
-34 -158 -4 -133 6 -178 51 -229 46 -52 96 -74 168 -74 33 0 60 -4 60 -8 0
-44 234 -1629 246 -1665 9 -26 32 -69 53 -97 74 -98 170 -154 292 -170 99 -13
3159 -13 3258 0 41 5 98 21 127 34 95 44 192 151 223 246 8 27 241 1619 241
1652 0 4 26 8 58 8 70 0 126 25 169 73 46 52 56 97 51 223 -5 123 -24 175 -78
214 -63 45 -104 50 -420 50 l-296 0 -473 650 c-260 358 -488 662 -505 675 -82
63 -203 75 -294 29 -125 -62 -186 -218 -135 -345 9 -23 173 -258 365 -521 191
-264 348 -481 348 -484 0 -2 -454 -4 -1010 -4 -555 0 -1010 2 -1010 4 0 3 152
213 337 468 185 255 348 482 361 506 52 92 37 227 -33 310 -53 61 -123 92
-209 92 -40 -1 -86 -7 -106 -16z m-216 -1949 c50 -24 92 -83 106 -149 7 -36
10 -219 8 -557 l-3 -504 -28 -47 c-66 -114 -217 -140 -314 -55 -75 66 -73 48
-73 642 0 495 2 533 19 570 50 109 174 153 285 100z m947 10 c52 -19 84 -47
112 -100 22 -39 22 -50 25 -560 3 -554 2 -571 -45 -634 -29 -38 -113 -81 -158
-81 -87 0 -179 66 -203 146 -15 52 -17 1040 -2 1095 14 52 73 115 123 132 55
20 95 20 148 2z m964 4 c52 -15 119 -82 134 -134 7 -27 11 -210 11 -560 0
-520 0 -521 -22 -565 -42 -83 -142 -134 -226 -115 -52 11 -120 61 -144 107
l-23 43 0 540 0 540 22 42 c49 90 146 130 248 102z"/>
</g>
</svg>
