<?xml version="1.0" standalone="no"?>
<!DOCTYPE svg PUBLIC "-//W3C//DTD SVG 20010904//EN"
 "http://www.w3.org/TR/2001/REC-SVG-20010904/DTD/svg10.dtd">
<svg version="1.0" xmlns="http://www.w3.org/2000/svg"
 width="512.000000pt" height="512.000000pt" viewBox="0 0 512.000000 512.000000"
 preserveAspectRatio="xMidYMid meet">

<g transform="translate(0.000000,512.000000) scale(0.100000,-0.100000)"
fill="#000000" stroke="none">
<path d="M599 4778 c-345 -148 -418 -183 -428 -204 -8 -17 -11 -167 -11 -499
l0 -474 22 -25 c16 -17 156 -82 433 -201 225 -96 417 -175 426 -175 10 0 201
79 426 175 281 121 415 183 431 200 l22 26 0 479 0 479 -22 26 c-26 29 -824
376 -861 374 -12 0 -209 -82 -438 -181z m733 -109 c155 -67 286 -124 291 -128
4 -4 -125 -64 -287 -133 l-295 -127 -295 127 c-162 69 -293 129 -290 132 8 8
567 248 581 249 6 1 139 -53 295 -120z m-687 -392 l310 -133 3 -371 2 -371
-232 100 c-128 54 -272 116 -320 136 l-88 37 0 368 c0 202 4 367 8 367 4 0
147 -60 317 -133z m1115 -235 l0 -367 -267 -115 c-148 -62 -292 -124 -321
-137 l-52 -23 2 372 3 371 310 133 c171 73 313 134 318 134 4 0 7 -165 7 -368z"/>
<path d="M3965 4953 c-60 -8 -181 -42 -239 -68 -482 -213 -670 -804 -400
-1257 65 -108 194 -237 302 -302 346 -206 789 -151 1073 133 112 112 191 253
235 417 27 103 26 312 -3 419 -92 340 -362 591 -698 650 -81 14 -198 17 -270
8z m247 -167 c102 -20 175 -49 260 -105 101 -66 196 -172 247 -274 61 -124 76
-190 75 -337 -1 -107 -5 -137 -27 -205 -38 -115 -90 -198 -182 -290 -92 -92
-175 -144 -290 -182 -68 -22 -98 -26 -205 -27 -147 -1 -213 14 -337 75 -145
72 -287 228 -343 377 -77 204 -59 439 47 622 47 80 178 213 256 259 152 89
328 120 499 87z"/>
<path d="M4000 4641 l0 -78 -52 -6 c-70 -9 -150 -50 -193 -99 -38 -45 -75
-132 -75 -178 0 -46 37 -133 75 -178 43 -49 123 -90 193 -99 l52 -6 0 -118 c0
-130 2 -126 -62 -107 -40 12 -98 67 -98 93 0 12 -16 15 -80 15 -92 0 -91 1
-60 -83 40 -106 135 -180 248 -194 l52 -6 0 -78 0 -79 80 0 80 0 0 79 0 78 52
6 c70 9 150 50 193 99 38 45 75 132 75 178 0 46 -37 133 -75 178 -43 49 -123
90 -193 99 l-52 6 0 118 c0 130 -2 126 62 109 38 -11 98 -69 98 -95 0 -12 16
-15 80 -15 92 0 91 -1 60 83 -40 106 -135 180 -248 194 l-52 6 0 78 0 79 -80
0 -80 0 0 -79z m0 -361 c0 -83 -4 -120 -11 -120 -67 0 -149 67 -149 120 0 54
73 115 143 119 15 1 17 -11 17 -119z m222 -290 c47 -13 98 -71 98 -110 0 -55
-80 -120 -147 -120 -10 0 -13 31 -13 120 0 131 -2 127 62 110z"/>
<path d="M2505 3495 c-23 -22 -25 -31 -25 -123 l0 -99 -52 -7 c-194 -26 -413
-189 -507 -378 -60 -122 -76 -192 -76 -333 0 -125 20 -217 66 -308 l20 -37 47
26 c26 15 57 33 69 40 l21 13 -24 60 c-67 165 -53 347 39 503 34 59 125 150
183 184 53 31 165 74 194 74 18 0 20 -7 20 -90 0 -83 2 -93 25 -115 14 -15 35
-25 52 -25 15 1 145 60 288 133 281 142 291 151 269 215 -8 23 -48 47 -269
159 -143 73 -273 132 -288 133 -17 0 -38 -10 -52 -25z m345 -295 c0 -3 -47
-29 -105 -58 l-105 -52 0 110 0 110 105 -52 c58 -29 105 -55 105 -58z"/>
<path d="M3120 2870 c-36 -21 -64 -42 -63 -47 1 -4 15 -39 29 -78 24 -60 28
-86 28 -180 1 -90 -3 -122 -22 -177 -60 -174 -203 -313 -371 -362 -84 -25 -81
-28 -81 74 0 83 -2 93 -25 115 -14 15 -35 25 -52 25 -15 -1 -145 -60 -288
-133 -221 -112 -261 -136 -269 -159 -22 -64 -12 -73 269 -215 143 -73 273
-132 288 -133 17 0 38 10 52 25 23 22 25 31 25 123 l0 99 51 7 c124 17 287
104 385 207 180 189 248 463 173 705 -19 61 -55 146 -62 143 -1 0 -31 -18 -67
-39z m-640 -950 l0 -110 -105 52 c-58 29 -105 55 -105 58 0 4 194 106 208 109
1 1 2 -48 2 -109z"/>
<path d="M838 2141 c-134 -44 -229 -145 -264 -282 -34 -131 4 -275 97 -371
l44 -46 -95 -5 c-199 -11 -358 -106 -429 -256 l-26 -56 -3 -482 -3 -483 81 0
80 0 0 458 c0 421 2 460 19 497 34 74 112 131 213 155 25 5 222 10 461 10
l418 0 279 -80 279 -80 246 0 245 0 0 -45 c0 -52 32 -42 -271 -85 l-206 -29
-234 39 c-129 22 -244 40 -257 40 -13 0 -34 -11 -47 -25 l-25 -24 0 -416 0
-415 80 0 80 0 0 350 c0 331 1 350 18 350 10 0 101 -14 202 -30 l183 -30 279
40 278 40 281 -41 282 -40 183 30 c100 17 190 31 198 31 14 0 16 -39 16 -350
l0 -350 80 0 80 0 0 415 0 416 -25 24 c-13 14 -34 25 -47 25 -13 0 -128 -18
-257 -40 l-234 -39 -206 29 c-303 43 -271 33 -271 85 l0 45 248 0 248 0 278
80 277 81 442 -3 442 -3 65 -31 c75 -36 115 -73 141 -129 17 -37 19 -75 19
-497 l0 -458 80 0 81 0 -3 483 -3 482 -26 56 c-71 150 -230 245 -429 256 l-95
5 44 46 c57 59 100 152 107 233 12 125 -27 231 -121 325 -82 83 -146 108 -275
108 -116 0 -185 -24 -258 -90 -175 -156 -188 -413 -30 -578 l45 -46 -124 0
-124 0 -279 -80 -279 -80 -549 0 -548 0 -279 80 -280 80 -126 0 -126 0 45 46
c114 120 142 297 70 451 -34 73 -131 165 -203 193 -83 32 -201 36 -277 11z
m196 -153 c55 -16 138 -99 154 -154 28 -94 8 -169 -63 -239 -101 -102 -229
-102 -330 0 -102 101 -102 229 0 330 70 71 145 90 239 63z m3200 0 c86 -26
166 -136 166 -228 0 -124 -116 -240 -240 -240 -124 0 -240 116 -240 240 0 63
23 114 75 165 70 71 145 90 239 63z"/>
<path d="M480 480 l0 -320 80 0 80 0 0 320 0 320 -80 0 -80 0 0 -320z"/>
<path d="M4480 480 l0 -320 80 0 80 0 0 320 0 320 -80 0 -80 0 0 -320z"/>
</g>
</svg>
