<?xml version="1.0" standalone="no"?>
<!DOCTYPE svg PUBLIC "-//W3C//DTD SVG 20010904//EN"
 "http://www.w3.org/TR/2001/REC-SVG-20010904/DTD/svg10.dtd">
<svg version="1.0" xmlns="http://www.w3.org/2000/svg"
 width="500.000000pt" height="500.000000pt" viewBox="0 0 500.000000 500.000000"
 preserveAspectRatio="xMidYMid meet">

<g transform="translate(0.000000,500.000000) scale(0.100000,-0.100000)"
fill="#000000" stroke="none">
<path d="M787 4566 c-26 -7 -64 -27 -85 -43 -25 -20 -123 -166 -310 -464 -150
-239 -288 -463 -306 -499 -148 -288 -96 -637 127 -862 220 -222 580 -260 882
-93 33 18 94 62 135 97 l75 64 45 -44 c139 -135 355 -222 551 -222 192 0 404
86 550 222 l46 43 79 -68 c191 -163 438 -228 679 -178 137 28 275 97 371 185
65 59 73 64 85 49 36 -43 173 -140 248 -176 320 -150 684 -73 886 187 103 133
148 272 149 451 1 136 -15 208 -68 320 -38 81 -566 927 -602 966 -14 14 -46
37 -72 50 l-47 24 -1685 2 c-1352 1 -1694 -1 -1733 -11z"/>
<path d="M422 1449 c3 -792 4 -836 22 -869 34 -64 63 -95 117 -125 l54 -30
1885 0 1885 0 53 29 c63 35 104 83 126 149 14 42 16 138 16 863 0 749 -1 816
-16 810 -38 -15 -192 -36 -258 -36 -68 0 -191 14 -228 26 -17 5 -18 -19 -18
-400 l0 -406 -1560 0 -1560 0 0 406 c0 381 -1 405 -17 400 -38 -12 -161 -26
-229 -26 -66 0 -220 21 -258 36 -15 6 -16 -55 -14 -827z"/>
</g>
</svg>
