<?xml version="1.0" standalone="no"?>
<!DOCTYPE svg PUBLIC "-//W3C//DTD SVG 20010904//EN"
 "http://www.w3.org/TR/2001/REC-SVG-20010904/DTD/svg10.dtd">
<svg version="1.0" xmlns="http://www.w3.org/2000/svg"
 width="500.000000pt" height="500.000000pt" viewBox="0 0 500.000000 500.000000"
 preserveAspectRatio="xMidYMid meet">
<metadata>
Created by potrace 1.16, written by Peter Selinger 2001-2019
</metadata>
<g transform="translate(0.000000,500.000000) scale(0.100000,-0.100000)"
fill="#000000" stroke="none">
<path d="M2890 4985 c-495 -79 -816 -392 -916 -895 -14 -70 -18 -167 -21 -537
l-4 -453 -395 0 -394 0 0 -460 0 -460 395 0 395 0 0 -1090 0 -1090 495 0 495
0 0 1090 0 1090 365 0 c201 0 365 4 365 8 0 10 127 843 134 885 l6 27 -435 0
-435 0 0 328 c0 363 6 409 62 514 54 101 146 167 283 203 46 11 116 15 307 15
l248 0 -2 393 -3 392 -90 12 c-317 43 -682 55 -855 28z"/>
</g>
</svg>
