<?xml version="1.0" standalone="no"?>
<!DOCTYPE svg PUBLIC "-//W3C//DTD SVG 20010904//EN"
 "http://www.w3.org/TR/2001/REC-SVG-20010904/DTD/svg10.dtd">
<svg version="1.0" xmlns="http://www.w3.org/2000/svg"
 width="500.000000pt" height="500.000000pt" viewBox="0 0 500.000000 500.000000"
 preserveAspectRatio="xMidYMid meet">
<metadata>
Created by potrace 1.16, written by Peter Selinger 2001-2019
</metadata>
<g transform="translate(0.000000,500.000000) scale(0.100000,-0.100000)"
fill="#000000" stroke="none">
<path d="M691 4984 c-85 -23 -150 -63 -226 -139 -114 -114 -161 -239 -152
-400 6 -111 31 -187 94 -279 85 -125 233 -209 389 -223 262 -22 504 160 559
422 18 88 18 132 0 220 -40 192 -181 341 -374 399 -68 20 -216 20 -290 0z"/>
<path d="M3370 3600 c-262 -56 -483 -204 -608 -405 l-32 -50 0 203 0 202 -434
0 c-338 0 -435 -3 -438 -12 -2 -7 -4 -665 -4 -1463 l1 -1450 458 -3 457 -2 0
792 c0 506 4 826 11 883 23 189 99 351 201 426 96 70 235 103 378 90 167 -16
272 -84 334 -214 76 -161 85 -292 86 -1289 l0 -688 455 0 455 0 0 883 c0 498
-4 941 -10 1017 -26 351 -101 592 -238 771 -133 171 -342 282 -607 318 -122
17 -366 13 -465 -9z"/>
<path d="M380 2085 l0 -1465 460 0 460 0 0 1465 0 1465 -460 0 -460 0 0 -1465z"/>
</g>
</svg>
