<?xml version="1.0" standalone="no"?>
<!DOCTYPE svg PUBLIC "-//W3C//DTD SVG 20010904//EN"
 "http://www.w3.org/TR/2001/REC-SVG-20010904/DTD/svg10.dtd">
<svg version="1.0" xmlns="http://www.w3.org/2000/svg"
 width="500.000000pt" height="500.000000pt" viewBox="0 0 500.000000 500.000000"
 preserveAspectRatio="xMidYMid meet">

<g transform="translate(0.000000,500.000000) scale(0.100000,-0.100000)"
fill="#000000" stroke="none">
<path d="M1812 4989 c-118 -13 -299 -54 -432 -98 -505 -169 -926 -535 -1165
-1011 -501 -999 -97 -2220 901 -2724 283 -143 522 -203 849 -213 349 -11 659
55 962 204 110 54 313 180 327 202 18 28 26 4 26 -75 0 -169 -44 -112 549
-706 373 -375 538 -534 568 -548 55 -26 125 -25 183 1 31 13 97 72 209 182
173 172 211 225 211 301 0 100 14 84 -544 644 -308 309 -537 532 -561 545 -31
16 -65 22 -146 26 l-107 6 74 110 c180 270 294 579 335 915 14 118 6 409 -16
540 -177 1070 -1148 1811 -2223 1699z m424 -789 c164 -26 359 -104 501 -202
105 -71 256 -224 325 -328 141 -214 202 -402 214 -665 23 -485 -253 -942 -700
-1161 -190 -92 -381 -131 -605 -121 -616 26 -1110 490 -1182 1110 -79 678 419
1300 1102 1376 91 10 247 6 345 -9z"/>
</g>
</svg>
