<?xml version="1.0" standalone="no"?>
<!DOCTYPE svg PUBLIC "-//W3C//DTD SVG 20010904//EN"
 "http://www.w3.org/TR/2001/REC-SVG-20010904/DTD/svg10.dtd">
<svg version="1.0" xmlns="http://www.w3.org/2000/svg"
 width="500.000000pt" height="500.000000pt" viewBox="0 0 500.000000 500.000000"
 preserveAspectRatio="xMidYMid meet">
<metadata>
Created by potrace 1.16, written by Peter Selinger 2001-2019
</metadata>
<g transform="translate(0.000000,500.000000) scale(0.100000,-0.100000)"
fill="#000000" stroke="none">
<path d="M3240 4511 c-332 -73 -610 -309 -737 -627 -19 -46 -41 -117 -50 -156
-18 -81 -23 -275 -10 -380 l9 -68 -44 0 c-59 0 -256 26 -348 45 -396 83 -721
215 -1036 420 -229 149 -414 310 -614 534 l-66 73 -41 -88 c-154 -333 -121
-727 86 -1027 52 -74 158 -186 220 -232 43 -31 30 -32 -86 -10 -95 18 -198 52
-272 90 l-54 27 6 -94 c17 -253 115 -472 292 -651 123 -124 272 -214 434 -262
73 -22 74 -22 38 -29 -62 -12 -244 -25 -279 -21 -113 14 -128 14 -128 2 0 -28
71 -172 123 -249 90 -135 203 -243 327 -313 134 -76 270 -121 433 -142 l58 -8
-100 -67 c-257 -174 -540 -285 -856 -334 -78 -12 -173 -17 -327 -18 -120 0
-218 -1 -218 -2 0 -4 208 -123 268 -153 222 -112 505 -207 759 -256 218 -43
597 -58 848 -35 681 63 1282 342 1746 811 366 370 623 814 762 1319 73 264 97
424 104 697 l6 211 71 54 c100 75 278 256 365 371 41 53 72 99 69 102 -3 3
-53 -13 -113 -35 -113 -43 -302 -93 -395 -105 l-55 -7 51 36 c67 45 184 164
240 242 45 63 118 208 130 257 l6 28 -93 -50 c-124 -66 -308 -137 -444 -171
l-109 -28 -51 45 c-123 111 -286 201 -440 244 -115 31 -365 36 -485 10z"/>
</g>
</svg>
