<?xml version="1.0" standalone="no"?>
<!DOCTYPE svg PUBLIC "-//W3C//DTD SVG 20010904//EN"
 "http://www.w3.org/TR/2001/REC-SVG-20010904/DTD/svg10.dtd">
<svg version="1.0" xmlns="http://www.w3.org/2000/svg"
 width="500.000000pt" height="500.000000pt" viewBox="0 0 500.000000 500.000000"
 preserveAspectRatio="xMidYMid meet">
<metadata>
Created by potrace 1.16, written by Peter Selinger 2001-2019
</metadata>
<g transform="translate(0.000000,500.000000) scale(0.100000,-0.100000)"
fill="#000000" stroke="none">
<path d="M1680 4159 c-312 -9 -681 -33 -850 -55 -235 -30 -326 -69 -445 -188
-49 -49 -93 -105 -112 -141 -75 -143 -120 -456 -143 -985 -22 -511 26 -1231
97 -1455 66 -211 217 -354 431 -409 153 -40 572 -72 1120 -86 1189 -30 2327
12 2593 96 228 72 369 232 418 474 22 108 44 280 63 485 21 223 17 1030 -5
1275 -27 286 -61 475 -105 570 -26 58 -87 142 -139 192 -135 130 -285 169
-773 202 -485 34 -1465 45 -2150 25z m775 -1214 c215 -122 479 -272 588 -334
109 -62 197 -114 195 -116 -2 -1 -86 -50 -188 -107 -102 -58 -349 -199 -550
-313 -484 -275 -467 -265 -474 -265 -3 0 -6 311 -6 690 l0 691 23 -12 c12 -7
198 -112 412 -234z"/>
</g>
</svg>
